<?xml version="1.0" standalone="no"?>
<!DOCTYPE svg PUBLIC "-//W3C//DTD SVG 1.1//EN" "http://www.w3.org/Graphics/SVG/1.1/DTD/svg11.dtd">
<svg version="1.1" xmlns="http://www.w3.org/2000/svg" viewBox="0 0 1146.648781202348 1454.1976339062944" width="2293.297562404696" height="2908.395267812589"><!-- svg-source:excalidraw --><metadata></metadata><defs><style class="style-fonts">
      </style></defs><rect x="0" y="0" width="1146.648781202348" height="1454.1976339062944" fill="#121212"></rect><g transform="translate(504.5785956922955 10) rotate(0 109.6689453125 35)"><text x="109.6689453125" y="25.060546875" font-family="Helvetica, sans-serif, Segoe UI Emoji" font-size="28px" fill="#caced1" text-anchor="middle" style="white-space: pre;" direction="ltr" dominant-baseline="alphabetic">OPS-PILOT</text><text x="109.6689453125" y="60.060546875" font-family="Helvetica, sans-serif, Segoe UI Emoji" font-size="28px" fill="#caced1" text-anchor="middle" style="white-space: pre;" direction="ltr" dominant-baseline="alphabetic">ARCHITECTURE</text></g><g stroke-linecap="round" transform="translate(531.6487812023478 144.19763390629444) rotate(0 75 20)"><path d="M10 0 C41.45 -0.66, 77.26 -3.77, 140 0 C147.73 -1.86, 147.1 6.45, 150 10 C153.39 16.49, 147.55 21.36, 150 30 C153.1 36.59, 146.78 43.43, 140 40 C109.28 42.05, 78.16 41.15, 10 40 C5.12 42.36, -1.06 33.42, 0 30 C2.52 24.38, 1.1 18.89, 0 10 C-1.2 3.12, 4.2 2.83, 10 0" stroke="none" stroke-width="0" fill="#161718"></path><path d="M10 0 C56.58 -0.45, 107.42 -1.39, 140 0 M10 0 C61.07 0.49, 114.28 1.25, 140 0 M140 0 C147.61 0.16, 148.8 4.81, 150 10 M140 0 C145.74 -2.26, 150.42 2.81, 150 10 M150 10 C151.64 16.8, 151.74 21.55, 150 30 M150 10 C149.57 17.21, 149.45 24.44, 150 30 M150 30 C149.67 37.19, 144.71 39.2, 140 40 M150 30 C151.46 37.28, 146.85 37.84, 140 40 M140 40 C103.22 38.41, 65.47 37.7, 10 40 M140 40 C113.39 40.3, 86.16 39.02, 10 40 M10 40 C4.33 38.57, -1.27 37.58, 0 30 M10 40 C1.79 41.3, -0.55 35.87, 0 30 M0 30 C1.92 23.32, 1.51 17.02, 0 10 M0 30 C-0.6 22.95, -0.96 17.19, 0 10 M0 10 C-0.78 4.78, 1.35 -0.13, 10 0 M0 10 C0.56 3.38, 4.11 -0.94, 10 0" stroke="#b7bcc1" stroke-width="4" fill="none"></path></g><g transform="translate(541.6487812023478 154.19763390629444) rotate(0 65 10)"><text x="65" y="14.3203125" font-family="Helvetica, sans-serif, Segoe UI Emoji" font-size="16px" fill="#caced1" text-anchor="middle" style="white-space: pre;" direction="ltr" dominant-baseline="alphabetic">[ User Request ]</text></g><g stroke-linecap="round" transform="translate(381.6487812023478 214.19763390629444) rotate(0 225 50.000000000000014)"><path d="M25 0 C158.93 1.11, 290.01 3.93, 425 0 C444.08 1.83, 450.21 11.54, 450 25 C452.44 38.75, 449.46 56.08, 450 75 C448.17 94.55, 439.76 101.67, 425 100 C269.5 104.05, 111.37 100.87, 25 100 C8.43 98.78, 0.85 94.06, 0 75 C-1.45 59.19, 0.63 46.63, 0 25 C2.88 11.02, 10.95 -0.65, 25 0" stroke="none" stroke-width="0" fill="#121e26"></path><path d="M25 0 C144.26 1.63, 261.01 0.29, 425 0 M25 0 C152.47 -2.1, 279.06 -1.72, 425 0 M425 0 C440.86 -1.96, 450.37 7.88, 450 25 M425 0 C442.54 0.98, 451.55 10.12, 450 25 M450 25 C451.56 38.3, 450.08 54.69, 450 75 M450 25 C449.65 40.58, 448.84 55.24, 450 75 M450 75 C451.27 92.2, 441.82 98.12, 425 100 M450 75 C449.79 90, 439.42 101.21, 425 100 M425 100 C310.41 99.97, 197.36 99.4, 25 100 M425 100 C268.72 98.77, 111.52 99.43, 25 100 M25 100 C6.99 101.13, -0.48 90.97, 0 75 M25 100 C8.9 100.48, -0.53 93.92, 0 75 M0 75 C0.19 61.21, -0.57 44.89, 0 25 M0 75 C0.06 63.1, -0.55 49.68, 0 25 M0 25 C0.49 8.37, 9.01 -0.82, 25 0 M0 25 C-0.92 7.49, 10.16 -1.52, 25 0" stroke="#68aae7" stroke-width="4" fill="none"></path></g><g transform="translate(391.6487812023478 230.44763390629444) rotate(0 215 33.750000000000014)"><text x="215" y="16.1103515625" font-family="Helvetica, sans-serif, Segoe UI Emoji" font-size="18px" fill="#caced1" text-anchor="middle" style="white-space: pre;" direction="ltr" dominant-baseline="alphabetic">MEMORY / CONTEXT WINDOW</text><text x="215" y="38.6103515625" font-family="Helvetica, sans-serif, Segoe UI Emoji" font-size="18px" fill="#caced1" text-anchor="middle" style="white-space: pre;" direction="ltr" dominant-baseline="alphabetic">System Prompt + User Goal +</text><text x="215" y="61.1103515625" font-family="Helvetica, sans-serif, Segoe UI Emoji" font-size="18px" fill="#caced1" text-anchor="middle" style="white-space: pre;" direction="ltr" dominant-baseline="alphabetic">Feedback + Outputs (TRUNCATED)</text></g><g stroke-linecap="round" transform="translate(456.6487812023478 394.19763390629447) rotate(0 150 30)"><path d="M15 0 C83.95 -1.86, 149.3 -0.78, 285 0 C294.15 -2.63, 296.68 8.1, 300 15 C298.19 26.82, 298.11 34.54, 300 45 C303.29 57.94, 297.39 61.79, 285 60 C186.35 55.61, 88.22 58.45, 15 60 C5.43 60.98, 1 53.8, 0 45 C2.75 38.86, 2.49 26.7, 0 15 C-2.94 4.59, 6.05 1.87, 15 0" stroke="none" stroke-width="0" fill="#0f1d12"></path><path d="M15 0 C107.37 2.55, 200.65 2.37, 285 0 M15 0 C97.8 -2.33, 181.38 -1.74, 285 0 M285 0 C295.76 0.85, 301.35 6.56, 300 15 M285 0 C295.04 1.9, 297.73 6.31, 300 15 M300 15 C300.08 20.58, 300.26 27.29, 300 45 M300 15 C300.34 25.06, 299.78 33.64, 300 45 M300 45 C299.82 53.55, 293.05 61.05, 285 60 M300 45 C299.63 56.3, 293.82 57.9, 285 60 M285 60 C178.45 61.65, 68.46 61.83, 15 60 M285 60 C222.78 61.41, 161.43 60.69, 15 60 M15 60 C5.49 60.42, -0.46 56.96, 0 45 M15 60 C4.78 61.78, 0.01 55.67, 0 45 M0 45 C-0.92 33.11, 0.73 23.99, 0 15 M0 45 C0.54 33.84, 0.64 22.24, 0 15 M0 15 C-0.8 4.27, 6.59 -1.32, 15 0 M0 15 C0.77 4.74, 3.78 0.68, 15 0" stroke="#50a260" stroke-width="4" fill="none"></path></g><g transform="translate(466.6487812023478 401.69763390629447) rotate(0 140 22.5)"><text x="140" y="16.1103515625" font-family="Helvetica, sans-serif, Segoe UI Emoji" font-size="18px" fill="#caced1" text-anchor="middle" style="white-space: pre;" direction="ltr" dominant-baseline="alphabetic">LLM ENGINE</text><text x="140" y="38.6103515625" font-family="Helvetica, sans-serif, Segoe UI Emoji" font-size="18px" fill="#caced1" text-anchor="middle" style="white-space: pre;" direction="ltr" dominant-baseline="alphabetic">(Groq / llama3-70b-8192)</text></g><g stroke-linecap="round" transform="translate(281.6487812023478 514.1976339062944) rotate(0 75 30)"><path d="M15 0 C56.26 -4.56, 95.9 1.17, 135 0 C144.92 0.12, 153.43 3.17, 150 15 C153 29.35, 152.1 39.6, 150 45 C152.36 53.94, 141.75 60.1, 135 60 C103.5 62.42, 72.13 60.23, 15 60 C4.79 60.87, 2.83 57.88, 0 45 C-3.33 33.35, 0.66 24.39, 0 15 C1.19 7.88, 8.26 -3.14, 15 0" stroke="none" stroke-width="0" fill="#26191e"></path><path d="M15 0 C58.18 -1.77, 102.51 -1.37, 135 0 M15 0 C39.6 0.7, 64.1 1.05, 135 0 M135 0 C145.04 1.65, 148.03 6.14, 150 15 M135 0 C142.94 -0.38, 149.42 5.15, 150 15 M150 15 C150.57 20.94, 149.25 32.07, 150 45 M150 15 C149.93 24.08, 149.05 35.13, 150 45 M150 45 C149.68 56.13, 143.97 58.17, 135 60 M150 45 C152.3 53.92, 146.15 62.1, 135 60 M135 60 C93.04 59.33, 54.84 59.26, 15 60 M135 60 C92.49 59.79, 49.25 60.56, 15 60 M15 60 C4.81 61.55, 0.01 55.58, 0 45 M15 60 C5.86 59.79, -1.21 53.91, 0 45 M0 45 C1.35 36.68, -0.23 32.8, 0 15 M0 45 C-0.5 35.57, 0.69 26.22, 0 15 M0 15 C0.67 4.78, 3.94 0.59, 15 0 M0 15 C-1.19 3.15, 6.99 1.54, 15 0" stroke="#ff8f8f" stroke-width="4" fill="none"></path></g><g transform="translate(291.6487812023478 524.1976339062944) rotate(0 65 20)"><text x="65" y="14.3203125" font-family="Helvetica, sans-serif, Segoe UI Emoji" font-size="16px" fill="#caced1" text-anchor="middle" style="white-space: pre;" direction="ltr" dominant-baseline="alphabetic">END SESSION</text><text x="65" y="34.3203125" font-family="Helvetica, sans-serif, Segoe UI Emoji" font-size="16px" fill="#caced1" text-anchor="middle" style="white-space: pre;" direction="ltr" dominant-baseline="alphabetic">(Print Msg)</text></g><g stroke-linecap="round" transform="translate(686.6487812023478 499.19763390629447) rotate(0 170 45)"><path d="M22.5 0 C89.39 -3.3, 158.94 -4.74, 317.5 0 C335.39 -1.91, 341.67 10.79, 340 22.5 C342.9 38.62, 337.29 56.96, 340 67.5 C338.78 83.35, 334.9 90.43, 317.5 90 C220.8 89.33, 126.51 90.82, 22.5 90 C10.19 92.62, -0.65 79.56, 0 67.5 C0.95 57.4, 3.03 38.4, 0 22.5 C0.59 4.02, 7.31 3.54, 22.5 0" stroke="none" stroke-width="0" fill="#1e1900"></path><path d="M22.5 0 C91.84 1.16, 163.75 1.45, 317.5 0 M22.5 0 C123.6 -1.09, 223.94 -1.28, 317.5 0 M317.5 0 C330.7 -0.33, 339.5 7.63, 340 22.5 M317.5 0 C331.66 0.36, 339.62 8.1, 340 22.5 M340 22.5 C340.36 31.75, 337.94 40.51, 340 67.5 M340 22.5 C339.4 33.3, 339.05 42.04, 340 67.5 M340 67.5 C342 81.56, 333.5 91.83, 317.5 90 M340 67.5 C340.87 81.66, 333.64 88.36, 317.5 90 M317.5 90 C248.54 88.18, 177.4 88.9, 22.5 90 M317.5 90 C222.76 92.72, 128.16 92.36, 22.5 90 M22.5 90 C8.24 89.82, -1.05 81.55, 0 67.5 M22.5 90 C5.46 90.81, -0.89 84.17, 0 67.5 M0 67.5 C0.07 59.14, -0.79 48.62, 0 22.5 M0 67.5 C-0.02 55.53, -0.89 44.08, 0 22.5 M0 22.5 C-1.03 5.89, 9.23 1.34, 22.5 0 M0 22.5 C1.17 7.63, 9.55 -0.54, 22.5 0" stroke="#a25800" stroke-width="4" fill="none"></path></g><g transform="translate(696.6487812023478 514.1976339062944) rotate(0 160 30)"><text x="160" y="14.3203125" font-family="Helvetica, sans-serif, Segoe UI Emoji" font-size="16px" fill="#caced1" text-anchor="middle" style="white-space: pre;" direction="ltr" dominant-baseline="alphabetic">TOOL DISPATCHER (Sequential)</text><text x="160" y="34.3203125" font-family="Helvetica, sans-serif, Segoe UI Emoji" font-size="16px" fill="#caced1" text-anchor="middle" style="white-space: pre;" direction="ltr" dominant-baseline="alphabetic">*Breaks inner loop on error</text><text x="160" y="54.3203125" font-family="Helvetica, sans-serif, Segoe UI Emoji" font-size="16px" fill="#caced1" text-anchor="middle" style="white-space: pre;" direction="ltr" dominant-baseline="alphabetic">to allow LLM to reassess</text></g><g stroke-linecap="round" transform="translate(566.6487812023478 654.1976339062944) rotate(0 90 30)"><path d="M15 0 C63.37 -0.53, 107.63 4.66, 165 0 C177.94 2.39, 181.79 7.36, 180 15 C178.29 23.97, 181.91 31.67, 180 45 C180.98 56, 173.8 59.79, 165 60 C119.06 64.78, 67.08 59.22, 15 60 C4.59 61.05, 1.87 56.19, 0 45 C0.1 30.11, -0.68 25.73, 0 15 C-3.55 5.76, 5.71 1.84, 15 0" stroke="none" stroke-width="0" fill="#1f1c29"></path><path d="M15 0 C63.62 0.78, 112.1 -0.53, 165 0 M15 0 C71.5 -1.02, 129.55 -0.79, 165 0 M165 0 C174.27 0.31, 179.67 5.53, 180 15 M165 0 C172.75 -0.92, 181.46 5.62, 180 15 M180 15 C178.26 22.28, 180.77 33.14, 180 45 M180 15 C180.85 25.23, 180.34 37.31, 180 45 M180 45 C180.76 54.27, 175.99 58.57, 165 60 M180 45 C178.54 56.05, 173.46 61.3, 165 60 M165 60 C123.99 59.91, 84.1 60.18, 15 60 M165 60 C108.74 60.34, 51.21 59.96, 15 60 M15 60 C3.23 60.7, -0.78 56.45, 0 45 M15 60 C2.72 59.85, 0.56 55.05, 0 45 M0 45 C-0.61 36.57, -1.2 25.63, 0 15 M0 45 C-0.36 35.53, 1.03 28.34, 0 15 M0 15 C1.02 5.12, 6.78 -0.47, 15 0 M0 15 C-1.68 2.88, 6.98 -0.05, 15 0" stroke="#9c7cff" stroke-width="4" fill="none"></path></g><g transform="translate(576.6487812023478 664.1976339062944) rotate(0 80 20)"><text x="80" y="14.3203125" font-family="Helvetica, sans-serif, Segoe UI Emoji" font-size="16px" fill="#caced1" text-anchor="middle" style="white-space: pre;" direction="ltr" dominant-baseline="alphabetic">search.js</text><text x="80" y="34.3203125" font-family="Helvetica, sans-serif, Segoe UI Emoji" font-size="16px" fill="#caced1" text-anchor="middle" style="white-space: pre;" direction="ltr" dominant-baseline="alphabetic">(Web Search)</text></g><g stroke-linecap="round" transform="translate(931.6487812023478 654.1976339062944) rotate(0 75 30)"><path d="M15 0 C47.59 0.42, 76.08 0.39, 135 0 C143.94 -3.25, 150.1 3.78, 150 15 C151.34 25.71, 149.16 34.21, 150 45 C150.87 57.83, 147.88 62.69, 135 60 C89.86 59.29, 47.41 59.42, 15 60 C7.88 63.26, -3.14 55.59, 0 45 C-3.52 39.66, 0.74 34.64, 0 15 C-1.38 5.22, 4.45 -2.77, 15 0" stroke="none" stroke-width="0" fill="#1f1c29"></path><path d="M15 0 C60.76 -1.99, 104.35 -1.82, 135 0 M15 0 C48.64 0.08, 82.84 0.19, 135 0 M135 0 C143.04 -0.8, 151.27 5.54, 150 15 M135 0 C145.18 -2.16, 149.79 3.33, 150 15 M150 15 C151.29 20.05, 148.33 29.14, 150 45 M150 15 C150.53 22.22, 150.65 29.46, 150 45 M150 45 C148.73 55.91, 143.66 61.13, 135 60 M150 45 C149.45 54.2, 145.57 60.48, 135 60 M135 60 C103.3 59.89, 69.08 60.63, 15 60 M135 60 C99.2 59.78, 64.79 60.16, 15 60 M15 60 C3.02 59.87, 0.49 55.04, 0 45 M15 60 C5.78 59.06, -0.92 54.16, 0 45 M0 45 C-0.02 32.56, 0.79 21.2, 0 15 M0 45 C0.25 38.47, 0.63 31.6, 0 15 M0 15 C-1.46 3.16, 6.72 -0.04, 15 0 M0 15 C0.07 7.19, 3.83 1.84, 15 0" stroke="#9c7cff" stroke-width="4" fill="none"></path></g><g transform="translate(941.6487812023478 674.1976339062944) rotate(0 65 10)"><text x="65" y="14.3203125" font-family="Helvetica, sans-serif, Segoe UI Emoji" font-size="16px" fill="#caced1" text-anchor="middle" style="white-space: pre;" direction="ltr" dominant-baseline="alphabetic">executeCMD</text></g><g stroke-linecap="round" transform="translate(876.6487812023478 774.1976339062944) rotate(0 130 30)"><path d="M15 0 C98.37 -5.07, 183.62 -3.35, 245 0 C255.85 2.4, 260.43 5.98, 260 15 C260.69 27.67, 262.7 37.35, 260 45 C262.62 54.35, 252.06 59.59, 245 60 C171.73 63.93, 90.9 61.66, 15 60 C1.52 59.81, 3.54 51.45, 0 45 C-1.49 35.58, -0.66 22.97, 0 15 C-3.19 6.44, 6.76 -0.86, 15 0" stroke="none" stroke-width="0" fill="#1f1717"></path><path d="M15 0 C61.04 1.33, 107.76 1.13, 245 0 M15 0 C86.77 -0.85, 160.75 -0.29, 245 0 M245 0 C255.16 -1.88, 259.82 3.55, 260 15 M245 0 C252.76 1.21, 259.63 6.3, 260 15 M260 15 C258.78 23.46, 261.55 30.67, 260 45 M260 15 C259.52 23.36, 259.48 31.38, 260 45 M260 45 C259.52 54.3, 255.49 60.42, 245 60 M260 45 C259.47 57.25, 254.78 61.78, 245 60 M245 60 C175.78 59.84, 106.06 59.22, 15 60 M245 60 C167.09 61.36, 91.07 61.44, 15 60 M15 60 C5.68 59.18, -0.8 54.27, 0 45 M15 60 C6.83 58.48, 0.77 54.74, 0 45 M0 45 C-1.7 39.32, 1.25 31.2, 0 15 M0 45 C-1 34.91, 0.59 26.63, 0 15 M0 15 C0.06 6.9, 3.98 1.6, 15 0 M0 15 C-1.22 6.07, 7.1 1.88, 15 0" stroke="#ff8383" stroke-width="4" fill="none"></path></g><g transform="translate(886.6487812023478 784.1976339062944) rotate(0 120 20)"><text x="120" y="14.3203125" font-family="Helvetica, sans-serif, Segoe UI Emoji" font-size="16px" fill="#caced1" text-anchor="middle" style="white-space: pre;" direction="ltr" dominant-baseline="alphabetic">commandRiskClassifier</text><text x="120" y="34.3203125" font-family="Helvetica, sans-serif, Segoe UI Emoji" font-size="16px" fill="#caced1" text-anchor="middle" style="white-space: pre;" direction="ltr" dominant-baseline="alphabetic">(Intent-Based RBAC)</text></g><g stroke-linecap="round" transform="translate(931.6487812023478 869.1976339062944) rotate(0 75 74.99999999999994)"><path d="M75.2 -0.73 L151.59 74.68 L76.67 149.78 L-1.06 76.59" stroke="none" stroke-width="0" fill="#1f1717" fill-rule="evenodd"></path><path d="M76 0 C96.71 20.84, 117.26 40.1, 150 76 M76 0 C95.8 18.62, 114.87 38.59, 150 76 M150 76 C136.55 89.83, 118.61 107.83, 76 150 M150 76 C132.03 95.03, 113.43 113.39, 76 150 M76 150 C58.81 131.51, 39.01 114.97, 0 76 M76 150 C51.69 127.77, 27.39 103.54, 0 76 M0 76 C24.75 49, 52.02 24.37, 76 0 M0 76 C29.31 47.75, 57.72 19.01, 76 0" stroke="#ff8383" stroke-width="4" fill="none"></path></g><g transform="translate(941.6487812023478 934.1976339062944) rotate(0 65 10)"><text x="65" y="14.3203125" font-family="Helvetica, sans-serif, Segoe UI Emoji" font-size="16px" fill="#caced1" text-anchor="middle" style="white-space: pre;" direction="ltr" dominant-baseline="alphabetic">Risk &gt; Low?</text></g><g stroke-linecap="round" transform="translate(706.6487812023478 1074.1976339062944) rotate(0 100 30)"><path d="M15 0 C78.33 -2.04, 139.44 0.04, 185 0 C197.83 2.88, 202.69 7.62, 200 15 C200.61 25.32, 200.74 34.8, 200 45 C203.26 51.86, 195.59 56.52, 185 60 C135.64 57.69, 86.6 55.6, 15 60 C5.22 59.45, -2.77 51.81, 0 45 C-3.66 31.72, -3.42 23.93, 0 15 C-2.18 6.07, 5.59 0.67, 15 0" stroke="none" stroke-width="0" fill="#0a1e20"></path><path d="M15 0 C62.4 2.93, 111.94 1.82, 185 0 M15 0 C49.03 1.76, 84.86 1.8, 185 0 M185 0 C193.97 -1.83, 202 4.06, 200 15 M185 0 C196.15 2.1, 200.87 4.16, 200 15 M200 15 C200.7 24.15, 200.91 35.51, 200 45 M200 15 C199.84 23.94, 199.98 31.69, 200 45 M200 45 C200.01 55.58, 195.74 59.82, 185 60 M200 45 C198.79 53.91, 192.96 60.81, 185 60 M185 60 C140.46 58.8, 96.22 58.99, 15 60 M185 60 C141.76 58.72, 97.26 59.27, 15 60 M15 60 C3.94 60.59, -1.03 53.39, 0 45 M15 60 C6.99 61.54, 1.17 55.13, 0 45 M0 45 C-1.77 35.04, 0.03 21.71, 0 15 M0 45 C-0.38 33.61, 1.07 22.11, 0 15 M0 15 C1.33 5.99, 6.31 -0.59, 15 0 M0 15 C-2.07 5.06, 4.22 0.55, 15 0" stroke="#2499ab" stroke-width="4" fill="none"></path></g><g transform="translate(716.6487812023478 1084.1976339062944) rotate(0 90 20)"><text x="90" y="14.3203125" font-family="Helvetica, sans-serif, Segoe UI Emoji" font-size="16px" fill="#caced1" text-anchor="middle" style="white-space: pre;" direction="ltr" dominant-baseline="alphabetic">Human-in-Loop</text><text x="90" y="34.3203125" font-family="Helvetica, sans-serif, Segoe UI Emoji" font-size="16px" fill="#caced1" text-anchor="middle" style="white-space: pre;" direction="ltr" dominant-baseline="alphabetic">(SSH Keepalive)</text></g><g stroke-linecap="round" transform="translate(916.6487812023478 1194.1976339062944) rotate(0 90 30)"><path d="M15 0 C57.82 2.23, 97.65 1.96, 165 0 C174.35 -2.94, 179.59 6.05, 180 15 C183.44 22.42, 180.76 32.63, 180 45 C179.81 58.54, 171.45 60.76, 165 60 C117.24 58.41, 66.29 55.78, 15 60 C6.44 61.76, -0.86 51.6, 0 45 C-1.7 39.64, 1.06 32.81, 0 15 C1.78 4.85, 2.9 2.81, 15 0" stroke="none" stroke-width="0" fill="#0a1e20"></path><path d="M15 0 C67.62 -0.3, 122.54 -2.07, 165 0 M15 0 C67.38 -1.76, 121.79 -1.32, 165 0 M165 0 C176 1.83, 180.76 4.27, 180 15 M165 0 C176.14 -1.64, 178.54 6.05, 180 15 M180 15 C179.47 22.48, 180.59 28.52, 180 45 M180 15 C179.97 27.23, 180.34 38.79, 180 45 M180 45 C178.95 54.05, 173.23 60.7, 165 60 M180 45 C179.11 56.67, 172.72 59.85, 165 60 M165 60 C115.54 59.71, 66.99 62.1, 15 60 M165 60 C129.39 60.13, 94.33 59.03, 15 60 M15 60 C6.73 61.34, 1.02 55.12, 0 45 M15 60 C7.05 59.46, -1.68 52.88, 0 45 M0 45 C1.91 32.4, 1.61 20.78, 0 15 M0 45 C0.39 35.1, 0.38 23.92, 0 15 M0 15 C-1.8 5.05, 4.32 0.47, 15 0 M0 15 C1.53 5.28, 5.63 0.64, 15 0" stroke="#2499ab" stroke-width="4" fill="none"></path></g><g transform="translate(926.6487812023478 1204.1976339062944) rotate(0 80 20)"><text x="80" y="14.3203125" font-family="Helvetica, sans-serif, Segoe UI Emoji" font-size="16px" fill="#caced1" text-anchor="middle" style="white-space: pre;" direction="ltr" dominant-baseline="alphabetic">ssh.js</text><text x="80" y="34.3203125" font-family="Helvetica, sans-serif, Segoe UI Emoji" font-size="16px" fill="#caced1" text-anchor="middle" style="white-space: pre;" direction="ltr" dominant-baseline="alphabetic">(Remote Server)</text></g><g stroke-linecap="round" transform="translate(356.6487812023478 1324.1976339062944) rotate(0 250 60)"><path d="M30 0 C196.91 -4.35, 364.26 -2.35, 470 0 C491.87 1.19, 502.88 13.26, 500 30 C499.99 46.31, 496.62 56.31, 500 90 C500.71 111.84, 488.62 120.22, 470 120 C345.48 117.37, 219.09 114.8, 30 120 C6.92 116.85, -0.67 107.82, 0 90 C1.6 70.07, -2.27 53.26, 0 30 C-3.18 11.17, 10.39 2.1, 30 0" stroke="none" stroke-width="0" fill="#121e26"></path><path d="M30 0 C158.56 1.99, 286.64 1.63, 470 0 M30 0 C122 1.49, 213.69 0.85, 470 0 M470 0 C490.99 -1.43, 498.73 10.91, 500 30 M470 0 C488.46 1.3, 499.45 9.2, 500 30 M500 30 C502.08 49.29, 501.68 68.97, 500 90 M500 30 C499.7 49.26, 499.34 69.83, 500 90 M500 90 C499.22 111.45, 488.02 119.87, 470 120 M500 90 C500.56 110.05, 490.78 119.06, 470 120 M470 120 C354.84 122.08, 240.9 121.22, 30 120 M470 120 C325.46 118.56, 180.31 118.26, 30 120 M30 120 C11.78 119.53, -1.46 108.16, 0 90 M30 120 C11.98 119.95, 0.07 112.19, 0 90 M0 90 C0.45 76.88, 1.15 61.43, 0 30 M0 90 C-1.3 69.04, -0.73 48.27, 0 30 M0 30 C1.33 10.24, 10.55 0.56, 30 0 M0 30 C-0.77 9.87, 10.56 1.81, 30 0" stroke="#68aae7" stroke-width="4" fill="none"></path></g><g transform="translate(366.6487812023478 1350.4476339062944) rotate(0 240 33.75)"><text x="240" y="16.1103515625" font-family="Helvetica, sans-serif, Segoe UI Emoji" font-size="18px" fill="#caced1" text-anchor="middle" style="white-space: pre;" direction="ltr" dominant-baseline="alphabetic">CONTEXT PAYLOAD GENERATOR</text><text x="240" y="38.6103515625" font-family="Helvetica, sans-serif, Segoe UI Emoji" font-size="18px" fill="#caced1" text-anchor="middle" style="white-space: pre;" direction="ltr" dominant-baseline="alphabetic">* Packages Stdout/Stderr, Status, Feedback</text><text x="240" y="61.1103515625" font-family="Helvetica, sans-serif, Segoe UI Emoji" font-size="18px" fill="#caced1" text-anchor="middle" style="white-space: pre;" direction="ltr" dominant-baseline="alphabetic">* ENFORCES 2000-TOKEN TRUNCATION</text></g><g stroke-linecap="round"><g transform="translate(606.6487812023478 184.19763390629444) rotate(0 -0.1885135072637354 15)"><path d="M0 0 C-0.83 9.52, -0.39 17.53, 0 30 M0 0 C0.31 11.38, -0.26 23.71, 0 30" stroke="#b7bcc1" stroke-width="4" fill="none"></path></g><g transform="translate(606.6487812023478 184.19763390629444) rotate(0 -0.1885135072637354 15)"><path d="M-5.24 15.95 C-4.4 20.7, -2.58 24.31, 0 30 M-5.24 15.95 C-2.98 21.19, -1.35 27.13, 0 30" stroke="#b7bcc1" stroke-width="4" fill="none"></path></g><g transform="translate(606.6487812023478 184.19763390629444) rotate(0 -0.1885135072637354 15)"><path d="M5.02 15.86 C2.95 20.61, 1.86 24.25, 0 30 M5.02 15.86 C3.27 21.12, 0.88 27.09, 0 30" stroke="#b7bcc1" stroke-width="4" fill="none"></path></g></g><mask></mask><g stroke-linecap="round"><g transform="translate(606.6487812023478 314.19763390629447) rotate(0 -0.143637501369426 40)"><path d="M0 0 C-1.67 20.89, 1.1 40.54, 0 80 M0 0 C-0.24 21.54, -0.27 42.74, 0 80" stroke="#b7bcc1" stroke-width="4" fill="none"></path></g><g transform="translate(606.6487812023478 314.19763390629447) rotate(0 -0.143637501369426 40)"><path d="M-8.68 56.56 C-7.68 63.29, -2.75 68.88, 0 80 M-8.68 56.56 C-6.91 63.25, -4.66 69.54, 0 80" stroke="#b7bcc1" stroke-width="4" fill="none"></path></g><g transform="translate(606.6487812023478 314.19763390629447) rotate(0 -0.143637501369426 40)"><path d="M8.42 56.46 C5.17 63.39, 5.85 69.01, 0 80 M8.42 56.46 C5.68 63.06, 3.43 69.37, 0 80" stroke="#b7bcc1" stroke-width="4" fill="none"></path></g></g><mask></mask><g transform="translate(584.9799711890051 342.334213675295) rotate(0 100 10)"><text x="100" y="14.3203125" font-family="Helvetica, sans-serif, Segoe UI Emoji" font-size="16px" fill="#b7bcc1" text-anchor="middle" style="white-space: pre;" direction="ltr" dominant-baseline="alphabetic">Token-Safe Context</text></g><g stroke-linecap="round"><g transform="translate(456.6487812023478 424.19763390629447) rotate(0 -50 45)"><path d="M0 0 C-34.89 32.86, -70.57 62.07, -100 90 M0 0 C-35.4 31.32, -69.48 62.98, -100 90" stroke="#b7bcc1" stroke-width="4" fill="none"></path></g><g transform="translate(456.6487812023478 424.19763390629447) rotate(0 -50 45)"><path d="M-88.22 67.95 C-92.86 76.7, -97.69 82.15, -100 90 M-88.22 67.95 C-92.67 75.29, -96.26 83.47, -100 90" stroke="#b7bcc1" stroke-width="4" fill="none"></path></g><g transform="translate(456.6487812023478 424.19763390629447) rotate(0 -50 45)"><path d="M-76.8 80.68 C-85.56 85.03, -94.38 86.02, -100 90 M-76.8 80.68 C-85.12 83.69, -92.65 87.46, -100 90" stroke="#b7bcc1" stroke-width="4" fill="none"></path></g></g><mask></mask><g transform="translate(226.64878120234778 424.19763390629447) rotate(0 100 20)"><text x="100" y="14.3203125" font-family="Helvetica, sans-serif, Segoe UI Emoji" font-size="16px" fill="#b7bcc1" text-anchor="middle" style="white-space: pre;" direction="ltr" dominant-baseline="alphabetic">No Tools Requested</text><text x="100" y="34.3203125" font-family="Helvetica, sans-serif, Segoe UI Emoji" font-size="16px" fill="#b7bcc1" text-anchor="middle" style="white-space: pre;" direction="ltr" dominant-baseline="alphabetic">OR LoopCount &gt; MAX</text></g><g stroke-linecap="round"><g transform="translate(756.6487812023478 424.19763390629447) rotate(0 50 37.5)"><path d="M0 0 C35.35 25.52, 70.54 52.62, 100 75 M0 0 C26.47 20.66, 53.13 40.34, 100 75" stroke="#b7bcc1" stroke-width="4" fill="none"></path></g><g transform="translate(756.6487812023478 424.19763390629447) rotate(0 50 37.5)"><path d="M76.03 67.9 C85.27 69.19, 93.87 72.54, 100 75 M76.03 67.9 C82.17 70.71, 88.67 72.39, 100 75" stroke="#b7bcc1" stroke-width="4" fill="none"></path></g><g transform="translate(756.6487812023478 424.19763390629447) rotate(0 50 37.5)"><path d="M86.2 54.15 C91.79 60.19, 96.83 68.35, 100 75 M86.2 54.15 C89.68 60.63, 93.48 65.96, 100 75" stroke="#b7bcc1" stroke-width="4" fill="none"></path></g></g><mask></mask><g transform="translate(765.3867521666444 433.09376437361817) rotate(0 100 10)"><text x="100" y="14.3203125" font-family="Helvetica, sans-serif, Segoe UI Emoji" font-size="16px" fill="#b7bcc1" text-anchor="middle" style="white-space: pre;" direction="ltr" dominant-baseline="alphabetic">(Tool Requested)</text></g><g stroke-linecap="round"><g transform="translate(756.6487812023478 589.1976339062944) rotate(0 -50 32.5)"><path d="M0 0 C-23.63 15.4, -45.81 29.59, -100 65 M0 0 C-39.85 26.93, -79.28 52.42, -100 65" stroke="#b7bcc1" stroke-width="4" fill="none"></path></g><g transform="translate(756.6487812023478 589.1976339062944) rotate(0 -50 32.5)"><path d="M-84.61 45.3 C-88.78 50.35, -91.25 53.98, -100 65 M-84.61 45.3 C-90.75 53.55, -96.51 61.01, -100 65" stroke="#b7bcc1" stroke-width="4" fill="none"></path></g><g transform="translate(756.6487812023478 589.1976339062944) rotate(0 -50 32.5)"><path d="M-75.55 59.8 C-81.91 61.45, -86.49 61.71, -100 65 M-75.55 59.8 C-85.28 62.35, -94.64 64.04, -100 65" stroke="#b7bcc1" stroke-width="4" fill="none"></path></g></g><mask></mask><g stroke-linecap="round"><g transform="translate(956.6487812023478 589.1976339062944) rotate(0 25 32.5)"><path d="M0 0 C14 17.37, 29.35 35.59, 50 65 M0 0 C19.25 24.3, 37.23 48.46, 50 65" stroke="#b7bcc1" stroke-width="4" fill="none"></path></g><g transform="translate(956.6487812023478 589.1976339062944) rotate(0 25 32.5)"><path d="M28.94 51.53 C35.13 54.74, 42.49 58.73, 50 65 M28.94 51.53 C37.26 56.46, 44.32 61.16, 50 65" stroke="#b7bcc1" stroke-width="4" fill="none"></path></g><g transform="translate(956.6487812023478 589.1976339062944) rotate(0 25 32.5)"><path d="M42.53 41.14 C44.93 47.25, 48.53 54.12, 50 65 M42.53 41.14 C45.72 50.04, 47.65 58.66, 50 65" stroke="#b7bcc1" stroke-width="4" fill="none"></path></g></g><mask></mask><g stroke-linecap="round"><g transform="translate(1006.6487812023478 714.1976339062944) rotate(0 0.5205960456540879 30)"><path d="M0 0 C2.08 19.29, 1.68 38.97, 0 60 M0 0 C-0.3 19.26, -0.66 39.83, 0 60" stroke="#b7bcc1" stroke-width="4" fill="none"></path></g><g transform="translate(1006.6487812023478 714.1976339062944) rotate(0 0.5205960456540879 30)"><path d="M-9 36.68 C-4.07 44.08, -1.56 51.85, 0 60 M-9 36.68 C-6.48 43.88, -3.88 52.38, 0 60" stroke="#b7bcc1" stroke-width="4" fill="none"></path></g><g transform="translate(1006.6487812023478 714.1976339062944) rotate(0 0.5205960456540879 30)"><path d="M8.1 36.35 C7.48 43.82, 4.44 51.69, 0 60 M8.1 36.35 C5 43.65, 1.97 52.25, 0 60" stroke="#b7bcc1" stroke-width="4" fill="none"></path></g></g><mask></mask><g stroke-linecap="round"><g transform="translate(1006.6487812023478 834.1976339062944) rotate(0 0.11424509475159539 17.5)"><path d="M0 0 C0.95 9.7, 0.46 19.77, 0 35 M0 0 C-0.53 10.36, -0.29 20.73, 0 35" stroke="#b7bcc1" stroke-width="4" fill="none"></path></g><g transform="translate(1006.6487812023478 834.1976339062944) rotate(0 0.11424509475159539 17.5)"><path d="M-6.3 18.67 C-3.79 23.2, -2.47 28.05, 0 35 M-6.3 18.67 C-4.9 23.59, -2.85 28.5, 0 35" stroke="#b7bcc1" stroke-width="4" fill="none"></path></g><g transform="translate(1006.6487812023478 834.1976339062944) rotate(0 0.11424509475159539 17.5)"><path d="M5.67 18.44 C4.86 23.03, 2.86 27.94, 0 35 M5.67 18.44 C3.59 23.4, 2.16 28.38, 0 35" stroke="#b7bcc1" stroke-width="4" fill="none"></path></g></g><mask></mask><g stroke-linecap="round"><g transform="translate(931.6487812023478 944.1976339062944) rotate(0 -62.5 64.99999999999994)"><path d="M0 0 C-34.74 38.53, -71.83 74.52, -125 130 M0 0 C-33.11 34, -65.29 66.05, -125 130" stroke="#b7bcc1" stroke-width="4" fill="none"></path></g><g transform="translate(931.6487812023478 944.1976339062944) rotate(0 -62.5 64.99999999999994)"><path d="M-115.09 107.05 C-117.21 114.46, -120.85 119.34, -125 130 M-115.09 107.05 C-118.18 113.61, -121.29 118.61, -125 130" stroke="#b7bcc1" stroke-width="4" fill="none"></path></g><g transform="translate(931.6487812023478 944.1976339062944) rotate(0 -62.5 64.99999999999994)"><path d="M-102.65 118.79 C-108.48 122.79, -115.74 124.26, -125 130 M-102.65 118.79 C-108.79 122.42, -115.03 124.47, -125 130" stroke="#b7bcc1" stroke-width="4" fill="none"></path></g></g><mask></mask><g transform="translate(736.6487812023478 974.1976339062944) rotate(0 100 10)"><text x="100" y="14.3203125" font-family="Helvetica, sans-serif, Segoe UI Emoji" font-size="16px" fill="#b7bcc1" text-anchor="middle" style="white-space: pre;" direction="ltr" dominant-baseline="alphabetic">[YES]</text></g><g stroke-linecap="round"><g transform="translate(1006.6487812023478 1019.1976339062944) rotate(0 -0.4848780047105379 87.5)"><path d="M0 0 C-1.11 57.24, 0.54 117.24, 0 175 M0 0 C-1.49 65.22, -1.39 129.99, 0 175" stroke="#b7bcc1" stroke-width="4" fill="none"></path></g><g transform="translate(1006.6487812023478 1019.1976339062944) rotate(0 -0.4848780047105379 87.5)"><path d="M-9.01 151.68 C-6.94 157.82, -2.25 166.68, 0 175 M-9.01 151.68 C-5.64 160.4, -2.19 168.65, 0 175" stroke="#b7bcc1" stroke-width="4" fill="none"></path></g><g transform="translate(1006.6487812023478 1019.1976339062944) rotate(0 -0.4848780047105379 87.5)"><path d="M8.08 151.34 C4.39 157.51, 3.31 166.48, 0 175 M8.08 151.34 C5.08 160.17, 2.17 168.56, 0 175" stroke="#b7bcc1" stroke-width="4" fill="none"></path></g></g><mask></mask><g transform="translate(936.6487812023478 1074.1976339062944) rotate(0 100 10)"><text x="100" y="14.3203125" font-family="Helvetica, sans-serif, Segoe UI Emoji" font-size="16px" fill="#b7bcc1" text-anchor="middle" style="white-space: pre;" direction="ltr" dominant-baseline="alphabetic">[NO]</text></g><g stroke-linecap="round"><g transform="translate(806.6487812023478 1134.1976339062944) rotate(0 55 45)"><path d="M0 0 C25.02 17.47, 46.69 38.96, 110 90 M0 0 C33.13 27.27, 67.55 54.16, 110 90" stroke="#b7bcc1" stroke-width="4" fill="none"></path></g><g transform="translate(806.6487812023478 1134.1976339062944) rotate(0 55 45)"><path d="M86.47 81.56 C92.92 81.46, 96.32 85.71, 110 90 M86.47 81.56 C93.21 83.84, 101.51 86.09, 110 90" stroke="#b7bcc1" stroke-width="4" fill="none"></path></g><g transform="translate(806.6487812023478 1134.1976339062944) rotate(0 55 45)"><path d="M97.4 68.41 C101.59 71.04, 102.67 78.07, 110 90 M97.4 68.41 C100.88 74.62, 105.88 80.84, 110 90" stroke="#b7bcc1" stroke-width="4" fill="none"></path></g></g><mask></mask><g transform="translate(698.1505525277483 1185.3944033501366) rotate(0 100 10)"><text x="100" y="14.3203125" font-family="Helvetica, sans-serif, Segoe UI Emoji" font-size="16px" fill="#b7bcc1" text-anchor="middle" style="white-space: pre;" direction="ltr" dominant-baseline="alphabetic">(Approve/Deny)</text></g><g stroke-linecap="round"><g transform="translate(656.6487812023478 714.1976339062944) rotate(0 -25 304.99999999999994)"><path d="M0 0 C-10.19 122.87, -20.58 244.83, -50 610 M0 0 C-11.1 160.57, -24.62 321.49, -50 610" stroke="#b7bcc1" stroke-width="4" fill="none"></path></g><g transform="translate(656.6487812023478 714.1976339062944) rotate(0 -25 304.99999999999994)"><path d="M-56.48 585.86 C-55.15 591.37, -54.71 594.75, -50 610 M-56.48 585.86 C-54.25 592.15, -53.4 598.92, -50 610" stroke="#b7bcc1" stroke-width="4" fill="none"></path></g><g transform="translate(656.6487812023478 714.1976339062944) rotate(0 -25 304.99999999999994)"><path d="M-39.45 587.34 C-41.54 592.6, -44.52 595.67, -50 610 M-39.45 587.34 C-41.71 593.13, -45.36 599.51, -50 610" stroke="#b7bcc1" stroke-width="4" fill="none"></path></g></g><mask></mask><g stroke-linecap="round"><g transform="translate(1006.6487812023478 1254.1976339062944) rotate(0 -125 35)"><path d="M0 0 C-81.71 22.74, -162.7 47.35, -250 70 M0 0 C-58.7 16.38, -117.14 31.87, -250 70" stroke="#b7bcc1" stroke-width="4" fill="none"></path></g><g transform="translate(1006.6487812023478 1254.1976339062944) rotate(0 -125 35)"><path d="M-229.74 55.35 C-237.13 59.38, -243.61 66.51, -250 70 M-229.74 55.35 C-234.96 59.05, -239.68 61.38, -250 70" stroke="#b7bcc1" stroke-width="4" fill="none"></path></g><g transform="translate(1006.6487812023478 1254.1976339062944) rotate(0 -125 35)"><path d="M-225.07 71.8 C-233.97 70.51, -241.97 72.31, -250 70 M-225.07 71.8 C-231.43 71.65, -237.25 70.13, -250 70" stroke="#b7bcc1" stroke-width="4" fill="none"></path></g></g><mask></mask><g stroke-linecap="round"><g transform="translate(356.6487812023478 1384.1976339062944) rotate(0 -62.5 -560.425483504807)"><path d="M0 0 C-50.82 0.99, -101.51 0.07, -150 0 M-150 0 C-148.04 -324.22, -146.93 -646.61, -150 -1120 M-150 -1120 C-89.06 -1123.02, -29.02 -1119.84, 25 -1120" stroke="#b7bcc1" stroke-width="4.5" fill="none" stroke-dasharray="8 12"></path></g><g transform="translate(356.6487812023478 1384.1976339062944) rotate(0 -62.5 -560.425483504807)"><path d="M1.42 -1111.68 C8.6 -1112.78, 15.88 -1116.48, 25 -1120" stroke="#b7bcc1" stroke-width="4.5" fill="none"></path></g><g transform="translate(356.6487812023478 1384.1976339062944) rotate(0 -62.5 -560.425483504807)"><path d="M1.59 -1128.78 C8.65 -1124.17, 15.87 -1122.16, 25 -1120" stroke="#b7bcc1" stroke-width="4.5" fill="none"></path></g></g><mask></mask><g transform="translate(10 804.3398015093194) rotate(0 100 20)"><text x="100" y="14.3203125" font-family="Helvetica, sans-serif, Segoe UI Emoji" font-size="16px" fill="#b7bcc1" text-anchor="middle" style="white-space: pre;" direction="ltr" dominant-baseline="alphabetic">(Appends to Memory &amp;</text><text x="100" y="34.3203125" font-family="Helvetica, sans-serif, Segoe UI Emoji" font-size="16px" fill="#b7bcc1" text-anchor="middle" style="white-space: pre;" direction="ltr" dominant-baseline="alphabetic">Increments Loop)</text></g></svg>